<?xml version="1.0" encoding="utf-8"?>
<!-- Generator: Adobe Illustrator 19.0.0, SVG Export Plug-In . SVG Version: 6.00 Build 0)  -->
<svg version="1.1" id="Layer_1" xmlns="http://www.w3.org/2000/svg" xmlns:xlink="http://www.w3.org/1999/xlink" x="0px" y="0px"
	 viewBox="0 0 122.2 22.4" style="enable-background:new 0 0 122.2 22.4;" xml:space="preserve">
<style type="text/css">
	.st0{fill:#FFFFFF;}
	.st1{fill:#D51116;}
</style>
<g>
	<g>
		<path class="st0" d="M28,13.4c0.2-0.3,0.5-0.3,0.8-0.1c0.5,0.4,1.5,0.9,2.6,0.9c0.6,0,1.3-0.2,1.3-1c0-1.5-5.7-1.4-5.7-5.3
			c0-2.3,2-3.8,4.4-3.8c1.8,0,3,0.6,3.6,1.1c0.3,0.2,0.3,0.6,0.2,0.9l-0.8,1.5c-0.1,0.3-0.5,0.3-0.7,0.2c-0.5-0.3-1.4-0.8-2.3-0.8
			c-0.6,0-1.3,0.3-1.3,1c0,1.6,5.7,1.3,5.7,5.3c0,2.1-1.6,3.9-4.4,3.9c-2.1,0-3.5-0.9-4.2-1.4c-0.3-0.2-0.3-0.6-0.1-0.8L28,13.4z"/>
		<path class="st0" d="M37.2,4.9c0-0.3,0.3-0.6,0.6-0.6h1.9c0.3,0,0.6,0.3,0.6,0.6v8.3c0,0.8,0.1,1.1,0.7,1.2c0.3,0,0.5,0.3,0.5,0.6
			v1.5c0,0.3-0.2,0.6-0.6,0.6c-0.1,0-0.2,0-0.4,0c-1.6,0-3.3-0.4-3.3-3.4V4.9z"/>
		<path class="st0" d="M47.2,7.6c2.9,0,5.1,1.9,5.1,4.8c0,2.8-2.3,4.7-5.1,4.7c-2.8,0-5.1-1.9-5.1-4.7C42.1,9.5,44.4,7.6,47.2,7.6z
			 M47.2,14.5c1.1,0,2.1-0.8,2.1-2.2c0-1.4-0.9-2.2-2.1-2.2c-1.1,0-2.1,0.9-2.1,2.2C45.1,13.7,46.1,14.5,47.2,14.5z"/>
		<path class="st0" d="M54.1,10.6c0-0.2-0.1-0.3-0.3-0.3h-0.3c-0.3,0-0.6-0.3-0.6-0.6V8.5c0-0.3,0.3-0.6,0.6-0.6h0.4
			c0.2,0,0.3-0.1,0.3-0.3V5.9c0-0.3,0.3-0.6,0.6-0.6h1.8c0.3,0,0.6,0.3,0.6,0.6v1.8c0,0.2,0.1,0.3,0.3,0.3h1.1C58.8,8,59,8.2,59,8.5
			v1.3c0,0.3-0.3,0.6-0.6,0.6h-1.1c-0.2,0-0.3,0.1-0.3,0.3v2.5c0,0.9,0.9,1.1,1.4,1.2c0.3,0,0.6,0.2,0.6,0.5v1.5
			c0,0.3-0.2,0.6-0.6,0.6c-0.1,0-0.2,0-0.3,0c-1.4,0-4.2-0.4-4.2-3.4V10.6z"/>
		<path class="st0" d="M64.7,7.6c2.7,0,4.2,1.9,4.2,4.4c0,0.1,0,0.2,0,0.4c0,0.3-0.3,0.6-0.6,0.6h-4.9c-0.2,0-0.2,0.2-0.2,0.3
			c0.3,0.9,1.2,1.3,2,1.3c0.8,0,1.5-0.3,2-0.6c0.3-0.1,0.6-0.1,0.7,0.2l0.6,1.1c0.2,0.3,0.1,0.7-0.2,0.8c-0.6,0.4-1.8,1-3.4,1
			c-3.2,0-5-2.3-5-4.7C60,9.7,61.8,7.6,64.7,7.6z M65.6,11.2c0.1,0,0.3-0.1,0.3-0.3c-0.1-0.6-0.5-1-1.2-1c-0.8,0-1.2,0.5-1.4,1.1
			c0,0.1,0.1,0.2,0.2,0.2H65.6z"/>
		<path class="st0" d="M74.2,18c1.1,0,2.1-0.4,2.1-1.7V16c0-0.1,0-0.2,0-0.3c0,0,0,0,0,0c0,0,0,0,0,0c-0.5,0.6-1.2,0.9-2.2,0.9
			c-2.7,0-4.1-2.2-4.1-4.6c0-2.3,1.3-4.4,4.1-4.4c1.4,0,2.2,0.7,2.4,0.8c0,0,0,0,0.1,0c0,0,0,0,0,0c0,0,0-0.1,0-0.2
			c0-0.2,0.2-0.5,0.4-0.5h1.8c0.3,0,0.6,0.3,0.6,0.6V16c0,3.3-2.6,4.5-5.1,4.5c-1,0-2.1-0.2-2.9-0.6c-0.3-0.1-0.4-0.5-0.3-0.7
			l0.5-1.3c0.1-0.3,0.4-0.4,0.7-0.3C72.6,17.8,73.3,18,74.2,18z M76.3,12.1c0-1.6-0.8-2-1.8-2c-1.1,0-1.6,0.8-1.6,1.8
			c0,1.1,0.5,2.1,1.7,2.1C75.5,14.1,76.3,13.7,76.3,12.1z"/>
		<path class="st0" d="M81.3,8.4c0-0.3,0.3-0.6,0.6-0.6h1.8c0.3,0,0.6,0.3,0.6,0.6v1c0,0.3,0,0.5,0,0.6c0,0,0,0,0,0c0,0,0,0,0,0
			c0.4-1.2,1.4-2.1,2.7-2.2c0.3,0,0.5,0.3,0.5,0.6v1.9c0,0.3-0.3,0.5-0.5,0.5c0,0,0,0-0.1,0c-0.7,0-1.9,0.2-2.3,1.6
			c-0.1,0.3-0.2,0.7-0.2,1.2v2.9c0,0.3-0.3,0.6-0.6,0.6h-1.9c-0.3,0-0.6-0.3-0.6-0.6V8.4z"/>
		<path class="st0" d="M93,11.2c0.2,0,0.3-0.1,0.3-0.3c-0.1-0.6-0.6-0.9-1.3-0.9c-0.7,0-1.5,0.3-2,0.6c-0.3,0.1-0.6,0-0.7-0.2
			l-0.6-1.1c-0.1-0.3-0.1-0.6,0.2-0.8c0.6-0.3,1.8-0.9,3.3-0.9c2.5,0,4.1,1.4,4.1,3.7v5c0,0.3-0.3,0.6-0.6,0.6h-1.7
			c-0.3,0-0.6-0.2-0.6-0.5c0-0.3,0-0.5,0-0.6c0,0,0,0,0,0c0,0,0,0,0,0c-0.1,0.1-0.8,1.3-2.6,1.3c-1.7,0-3.1-1.1-3.1-2.9
			C87.9,11.6,91.5,11.2,93,11.2z M91.8,14.8c0.8,0,1.4-0.8,1.5-1.5c0-0.2-0.1-0.3-0.3-0.3c-1,0-2.1,0.3-2.1,1
			C90.9,14.4,91.2,14.8,91.8,14.8z"/>
		<path class="st0" d="M98.5,10.6c0-0.2-0.1-0.3-0.3-0.3h-0.3c-0.3,0-0.6-0.3-0.6-0.6V8.5c0-0.3,0.3-0.6,0.6-0.6h0.4
			c0.2,0,0.3-0.1,0.3-0.3V5.9c0-0.3,0.3-0.6,0.6-0.6h1.8c0.3,0,0.6,0.3,0.6,0.6v1.8c0,0.2,0.1,0.3,0.3,0.3h1.1
			c0.3,0,0.6,0.3,0.6,0.6v1.3c0,0.3-0.3,0.6-0.6,0.6h-1.1c-0.2,0-0.3,0.1-0.3,0.3v2.5c0,0.9,0.9,1.1,1.4,1.2c0.3,0,0.6,0.2,0.6,0.5
			v1.5c0,0.3-0.2,0.6-0.6,0.6c-0.1,0-0.2,0-0.3,0c-1.4,0-4.2-0.4-4.2-3.4V10.6z"/>
		<path class="st0" d="M109.5,7.6c2.9,0,5.1,1.9,5.1,4.8c0,2.8-2.3,4.7-5.1,4.7c-2.8,0-5.1-1.9-5.1-4.7
			C104.4,9.5,106.7,7.6,109.5,7.6z M109.5,14.5c1.1,0,2.1-0.8,2.1-2.2c0-1.4-0.9-2.2-2.1-2.2c-1.1,0-2.1,0.9-2.1,2.2
			C107.5,13.7,108.4,14.5,109.5,14.5z"/>
		<path class="st0" d="M116.1,8.4c0-0.3,0.3-0.6,0.6-0.6h1.8c0.3,0,0.6,0.3,0.6,0.6v1c0,0.3,0,0.5,0,0.6c0,0,0,0,0,0c0,0,0,0,0,0
			c0.4-1.2,1.4-2.1,2.7-2.2c0.3,0,0.5,0.3,0.5,0.6v1.9c0,0.3-0.3,0.5-0.5,0.5c0,0,0,0-0.1,0c-0.7,0-1.9,0.2-2.3,1.6
			c-0.1,0.3-0.2,0.7-0.2,1.2v2.9c0,0.3-0.3,0.6-0.6,0.6h-1.9c-0.3,0-0.6-0.3-0.6-0.6V8.4z"/>
	</g>
	<g>
		<g>
			<path class="st1" d="M18.7,2.5c0.9,0.3,0.9,0.9,0.9,1.2c-0.3,6.8-3.5,12.9-8.3,17c0,0-0.4,0.3-0.9,0.3s-0.9-0.3-0.9-0.3
				c-4.8-4.2-8-10.2-8.3-17c0-0.3,0-0.9,0.9-1.2c2.6-0.8,6.2-1.2,8.2-1.2C12.6,1.3,16.2,1.7,18.7,2.5z"/>
			<path class="st0" d="M10.5,1.3c2.1,0,5.7,0.4,8.2,1.2c0.9,0.3,0.9,0.9,0.9,1.2c-0.3,6.8-3.5,12.9-8.3,17c0,0-0.4,0.3-0.9,0.3
				s-0.9-0.3-0.9-0.3c-4.8-4.2-8-10.2-8.3-17c0-0.3,0-0.9,0.9-1.2C4.8,1.7,8.4,1.3,10.5,1.3 M10.5,0c-2.3,0-6,0.4-8.6,1.2
				C1.3,1.4-0.1,2,0,3.8c0.3,6.9,3.5,13.4,8.8,18l0,0l0,0c0.1,0.1,0.8,0.5,1.6,0.5c0.9,0,1.5-0.4,1.6-0.5l0,0l0,0
				c5.3-4.5,8.4-11.1,8.8-18c0.1-1.7-1.1-2.3-1.9-2.6C16.5,0.4,12.8,0,10.5,0L10.5,0z"/>
		</g>
		<g>
			<path class="st0" d="M11.5,10c0.6-0.4,1-1,1-1.7c0-1.1-0.9-2-2-2l0,0l0,0l0,0h0c-1.1,0-2,0.9-2,2c0,0.7,0.4,1.4,1,1.7
				c0.2,0.1,0.2,0.2,0.2,0.5c-0.1,0.5-0.4,2.7-0.5,3.4c0,0.1,0,0.2,0.2,0.3c0.2,0,0.6,0.1,1.1,0.1l0,0h0l0,0c0.5,0,0.9-0.1,1.1-0.1
				c0.1,0,0.2-0.1,0.2-0.3c-0.1-0.7-0.4-2.9-0.5-3.4C11.3,10.3,11.4,10.2,11.5,10z"/>
		</g>
	</g>
</g>
</svg>
